<svg xmlns="http://www.w3.org/2000/svg" viewBox="0 0 512 512">
  <rect width="512" height="512" rx="72" fill="#101218"/>
  <path d="M76 152V88h64M372 88h64v64M436 360v64h-64M140 424H76v-64"
        fill="none" stroke="#f1d16a" stroke-width="24" stroke-linecap="square"/>
  <path d="M256 118 394 196 256 274 118 196Z" fill="#75cf72"/>
  <path d="M118 196 256 274v142L118 338Z" fill="#397847"/>
  <path d="M394 196 256 274v142l138-78Z" fill="#4ca75b"/>
  <path d="m229 292 98 55-98 56Z" fill="#f4f7f2"/>
  <path d="M174 164h44v44h-44zM238 128h44v44h-44zM302 164h44v44h-44z"
        fill="#9ce58e" opacity=".9"/>
</svg>
